<?xml version="1.0" encoding="utf-8"?>
<!-- Generator: Adobe Illustrator 16.0.0, SVG Export Plug-In . SVG Version: 6.00 Build 0)  -->
<!DOCTYPE svg PUBLIC "-//W3C//DTD SVG 1.1//EN" "http://www.w3.org/Graphics/SVG/1.1/DTD/svg11.dtd">
<svg version="1.1" id="Layer_1" xmlns="http://www.w3.org/2000/svg" xmlns:xlink="http://www.w3.org/1999/xlink" x="0px" y="0px"
	 width="562px" height="200.911px" viewBox="-5 -4.089 562 200.911" enable-background="new -5 -4.089 562 200.911"
	 xml:space="preserve">
<rect x="-0.5" y="0.5" opacity="0.6" fill="#3FA9F5" stroke="#BDCCD4" stroke-linecap="round" stroke-linejoin="round" stroke-miterlimit="10" enable-background="new    " width="153" height="93"/>
<polygon fill="#6CC0F4" stroke="#000000" stroke-width="2" stroke-linecap="round" stroke-linejoin="round" stroke-miterlimit="10" points="
	148.667,167 3.53,167 19.294,135 137.849,135 "/>
<g transform="translate(-3.3359375,285.2793)">
	<path d="M494.985-245.566c0,0.26-0.261,0.26-0.261,0.26h-0.26c-0.26,0-0.26-0.26-0.52-0.52c0,0-0.261-0.26-0.261-0.52
		c0-0.26,0-0.26,0.261-0.26l0.52,0.26C494.726-246.086,494.985-245.826,494.985-245.566 M490.31-248.164
		c0-1.299-0.52-2.078-1.299-2.078c0,0,0,0.26-0.261,0.26v0.52h0.78c0,0.52,0.26,0.779,0.26,1.299L490.31-248.164 M499.401-249.463
		c0.52,0,0.778,0.52,1.039,1.299h0.52c-0.26-0.26-0.26-0.52-0.26-0.779c0-0.259,0-0.52-0.261-0.779
		c-0.26-0.259-0.52-0.52-0.778-0.52c0,0-0.26,0.26-0.521,0.26C499.142-249.723,499.401-249.723,499.401-249.463 M491.608-245.307
		c-0.261,0-0.261,0-0.261-0.26c0-0.26,0-0.52,0.261-0.779c0.52,0,0.778-0.26,0.778-0.26c0.26,0,0.26,0.26,0.26,0.26
		c0,0.26-0.26,0.52-0.778,1.039H491.608 M488.75-245.566c-1.038-0.52-1.298-1.299-1.298-2.598c0-0.779,0-1.299,0.52-1.818
		c0.261-0.52,0.778-0.779,1.3-0.779c0.52,0,0.778,0.26,1.299,0.779c0.26,0.779,0.52,1.559,0.52,2.338v0.26v0.26h0.26v-0.26
		c0.261,0,0.261-0.52,0.261-1.559c0-0.779,0-1.559-0.521-2.338c-0.52-0.779-1.039-1.299-2.078-1.299
		c-0.778,0-1.559,0.52-1.817,1.299c-0.521,1.039-0.624,1.818-0.624,3.117c0,1.039,0.363,2.078,1.402,3.117
		C488.23-245.307,488.491-245.307,488.75-245.566 M521.222-208.939c0.261,0,0.261-0.104,0.261-0.338c0-0.571-0.261-1.246-1.039-2
		c-0.779-0.779-2.078-1.272-3.638-1.48c-0.26-0.026-0.52-0.026-0.52-0.026c-0.26-0.052-0.26-0.052-0.521-0.052
		c-0.26-0.026-0.778-0.078-1.039-0.13c0.779-2.416,1.039-4.546,1.039-6.416c0-2.598-0.52-4.416-1.559-5.975
		s-2.078-2.338-3.377-2.598c-0.26,0.26-0.26,0.26-0.26,0.52c1.299,0.52,2.598,1.559,3.377,3.117
		c0.778,1.818,1.039,3.377,1.039,5.195c0,1.455-0.261,3.61-1.3,6.364c-1.039,0.415-2.077,1.377-2.856,2.883
		c0,0.234,0,0.364,0.26,0.364c0,0,0.26-0.234,0.52-0.676c0.521-0.441,0.779-0.883,1.3-1.324c0.778-0.441,1.299-0.676,2.078-0.676
		c1.299,0,2.598,0.182,3.377,0.546c1.039,0.337,1.559,0.701,1.817,1.117c0.26,0.389,0.521,0.753,0.779,1.09
		C520.962-209.096,521.222-208.939,521.222-208.939 M497.323-246.605c-0.261-0.26-0.261-0.779-0.261-1.299
		c0-1.039,0-1.559,0.521-2.338c0.52-0.52,1.039-0.779,1.559-0.779c0.779,0,1.3,0.52,1.818,1.039c0.26,0.779,0.521,1.299,0.521,2.078
		c0,1.299-0.521,2.078-1.56,2.338c0,0,0.26,0.26,0.521,0.26c0.52,0,0.778,0.26,1.299,0.52c0.26-1.559,0.52-2.598,0.52-3.896
		c0-1.559-0.26-2.598-0.779-3.377c-0.778-0.779-1.559-1.039-2.598-1.039c-0.779,0-1.559,0.26-2.338,0.779
		c-0.52,0.779-0.779,1.299-0.779,2.078c0,1.299,0.261,2.338,0.779,3.377C496.804-246.865,497.062-246.605,497.323-246.605
		 M500.44-242.449c-3.378,2.338-5.976,3.377-8.054,3.377c-1.817,0-3.638-0.779-5.194-2.078c0.26,0.52,0.52,1.039,0.778,1.299
		l1.56,1.559c1.039,1.039,2.338,1.559,3.637,1.559c1.818,0,3.896-1.039,6.494-2.857l2.338-1.559c0.52-0.52,1.039-1.039,1.039-1.818
		c0-0.26,0-0.52-0.26-0.52c-0.261-0.52-1.56-1.299-4.156-2.078c-2.339-1.039-4.156-1.559-5.195-1.559
		c-0.778,0-2.078,0.52-3.896,1.559c-1.56,1.039-2.599,2.078-2.599,3.117c0,0,0.261,0.26,0.521,0.779
		c1.559,1.299,3.117,2.078,4.676,2.078c2.078,0,4.676-1.039,8.053-3.637v0.52C500.44-242.709,500.44-242.449,500.44-242.449
		 M506.415-189.977c1.039,1.954,2.856,2.936,4.936,2.936c0.521,0,1.039-0.078,1.56-0.233c0.52-0.104,1.039-0.286,1.299-0.494
		c0.26-0.182,0.521-0.363,0.779-0.571c0.52-0.182,0.52-0.312,0.778-0.441l4.416-3.818c1.039-0.829,2.078-1.554,3.378-2.183
		c1.038-0.623,2.077-1.039,2.598-1.271c0.779-0.208,1.299-0.521,1.818-0.937c0.26-0.39,0.52-0.883,0.52-1.507
		c0-0.753-0.52-1.324-1.039-1.74c-0.519-0.416-1.039-0.701-1.559-0.883c-0.521-0.182-1.039-0.598-1.818-1.299
		c-0.52-0.676-1.039-1.61-1.299-2.831l-0.26-1.508c-0.261-0.701-0.261-1.221-0.521-1.506c0-0.078,0-0.104-0.26-0.104
		s-0.779,0.233-1.039,0.675c-0.521,0.441-1.039,0.935-1.56,1.454c-0.26,0.52-1.039,0.988-1.559,1.43
		c-0.779,0.441-1.559,0.675-2.078,0.675c-2.078,0-3.117-0.571-3.896-1.688c-0.521-0.831-0.779-1.792-1.039-2.884
		c-0.521-0.441-0.779-0.675-1.3-0.675c-1.299,0-1.817,1.351-1.817,4.078v0.857v3.014v2.312v1.117v0.779
		c0,0.233-0.26,0.753-0.26,1.559c-0.261,0.805-0.261,1.72-0.261,2.753l-0.52,2.884v0.044 M468.749-191.358
		c2.415,0.354,5.195,1.109,8.339,2.263c3.143,1.143,5.064,1.74,5.766,1.74c1.818,0,3.326-0.805,4.572-2.361
		c0.26-0.504,0.26-1.096,0.26-1.776c0-2.455-1.479-5.56-4.44-9.325l-1.768-2.364c-0.363-0.494-0.806-1.247-1.377-2.261
		c-0.546-1.013-1.039-1.792-1.429-2.338c-0.338-0.597-0.883-1.194-1.584-1.792c-0.676-0.598-1.455-0.987-2.312-1.195
		c-1.092,0.208-1.845,0.572-2.208,1.065c-0.364,0.494-0.571,1.039-0.624,1.61c-0.078,0.546-0.233,0.909-0.493,1.091
		c-0.26,0.156-0.701,0.286-1.299,0.416c-0.131,0-0.364,0-0.701,0.025h-0.701c-1.377,0-2.312,0.156-2.806,0.416
		c-0.649,0.754-0.987,1.611-0.987,2.52c0,0.416,0.104,1.117,0.312,2.104c0.208,0.961,0.312,1.74,0.312,2.286
		c0,1.064-0.312,2.13-0.961,3.195c-0.65,1.117-0.988,1.948-0.988,2.54c0.26,1.008,1.976,1.718,5.118,2.133 M477.398-214.979
		c0-1.793,0.469-3.768,1.43-6.104c0.936-2.339,1.87-3.896,2.779-4.936c-0.054-0.26-0.183-0.26-0.391-0.26l-0.26-0.26
		c-0.753,0.779-1.663,2.597-2.754,5.194c-1.091,2.339-1.663,4.495-1.663,6.079c0,1.169,0.287,2.182,0.807,3.065
		c0.57,0.857,1.947,2.104,4.13,3.688l2.754,1.793c2.936,2.545,4.493,4.312,4.493,5.351c0,0.546-0.26,1.091-1.039,1.688
		c-0.52,0.624-1.221,0.936-1.817,0.936c-0.053,0-0.078,0.052-0.078,0.182c0,0.026,0.26,0.546,0.806,1.559
		c1.091,1.48,3.429,2.208,6.546,2.208c5.715,0,10.131-2.338,13.508-7.014c0-1.299,0-2.104-0.26-2.441v-0.962
		c0-1.688,0.26-2.961,0.779-3.792c0.52-0.832,1.039-1.222,1.818-1.222c0.52,0,1.039,0.183,1.559,0.571
		c0.26-1.999,0.26-3.74,0.26-5.299c0-2.363,0-4.312-0.52-6.13c-0.26-1.56-0.779-2.858-1.299-3.896
		c-0.521-0.779-1.039-1.559-1.56-2.339c-0.52-0.778-0.778-1.559-1.299-2.337c-0.26-1.039-0.521-1.819-0.521-3.118
		c-0.778-1.299-1.299-2.598-2.077-3.896c-0.521-1.299-1.039-2.597-1.56-3.636l-2.338,1.817c-2.598,1.818-4.676,2.598-6.494,2.598
		c-1.559,0-2.856-0.26-3.637-1.298l-1.559-1.3c0,0.78-0.261,1.818-0.779,2.857l-1.637,3.117c-0.728,1.819-1.117,2.858-1.194,3.637
		c-0.104,0.52-0.183,1.039-0.233,1.039l-1.948,3.896c-2.104,3.897-3.168,7.508-3.168,10.495c0,0.598,0.051,1.221,0.154,1.844
		C477.971-212.407,477.398-213.524,477.398-214.979 M495.998-190.405c-3.377,0-5.975,0.458-7.793,1.364v-0.078
		c-1.299,1.559-2.754,2.364-4.779,2.364c-1.272,0-3.272-0.494-5.975-1.481c-2.729-0.935-5.145-1.651-7.248-2.125
		c-0.207-0.06-0.675-0.147-1.428-0.267c-0.729-0.117-1.403-0.236-2.001-0.356c-0.546-0.117-1.169-0.293-1.846-0.532
		c-0.647-0.205-1.168-0.473-1.559-0.798c-0.357-0.327-0.535-0.696-0.535-1.108c0-0.416,0.089-0.86,0.266-1.333
		c0.166-0.286,0.349-0.571,0.529-0.832c0.183-0.285,0.338-0.545,0.441-0.805c0.155-0.234,0.26-0.468,0.363-0.728
		c0.104-0.233,0.208-0.468,0.261-0.753c0.052-0.26,0.104-0.52,0.104-0.779c0-0.259-0.104-1.039-0.312-2.416
		c-0.207-1.351-0.312-2.208-0.312-2.572c0-1.143,0.26-2.052,0.831-2.701c0.572-0.649,1.117-0.987,1.689-0.987h2.985
		c0.234,0,0.599-0.13,1.144-0.441c0.183-0.416,0.338-0.753,0.441-1.065c0.131-0.312,0.183-0.545,0.233-0.648
		c0.053-0.156,0.104-0.312,0.156-0.442c0.104-0.182,0.233-0.39,0.416-0.597c-0.209-0.261-0.312-0.598-0.312-1.014
		c0-0.286,0-0.545,0.053-0.701c0-0.936,0.441-2.261,1.378-4l0.907-1.637c0.754-1.403,1.325-2.442,1.74-3.481
		c0.441-1.039,0.91-2.598,1.43-4.676c0.415-1.818,1.402-3.636,2.961-5.455l1.948-2.338c1.352-1.559,2.233-2.857,2.729-3.896
		c0.494-1.039,0.754-2.338,0.754-3.377c0-0.52-0.131-2.078-0.416-4.676c-0.26-2.598-0.391-5.195-0.391-7.533
		c0-1.818,0.155-3.117,0.493-4.416c0.338-1.299,0.937-2.598,1.818-3.637c0.778-1.039,1.817-2.078,3.377-2.598
		c1.559-0.52,3.377-0.779,5.455-0.779c0.778,0,1.559,0,2.338,0.26c0.779,0,1.818,0.26,3.117,0.779
		c1.039,0.52,2.078,1.039,2.856,1.818c1.039,0.779,1.818,2.078,2.599,3.377c0.52,1.559,1.039,3.117,1.299,5.195
		c0.26,1.299,0.26,2.598,0.52,4.416c0,1.559,0.261,2.598,0.261,3.377c0.26,0.779,0.26,1.818,0.52,3.117
		c0.26,1.039,0.52,2.078,1.039,2.857c0.52,1.039,1.039,2.078,1.818,3.117c0.778,1.299,1.817,2.598,2.856,4.156
		c2.338,2.599,4.156,5.455,5.195,8.312c1.299,2.598,2.078,5.975,2.078,9.586c0,1.792-0.261,3.532-0.779,5.221
		c0.521,0,0.779,0.208,1.039,0.571c0.26,0.364,0.521,1.144,0.779,2.364l0.26,1.923c0.26,0.571,0.52,1.117,1.299,1.584
		c0.521,0.468,1.039,0.857,1.818,1.169c0.52,0.26,1.299,0.624,1.817,1.091c0.521,0.52,0.779,1.065,0.779,1.637
		c0,0.883-0.26,1.533-0.779,2c-0.52,0.52-1.039,0.884-1.817,1.117c-0.521,0.26-1.56,0.779-3.117,1.512
		c-1.299,0.77-2.598,1.702-3.896,2.806l-2.598,2.211c-1.039,1.013-2.078,1.74-2.856,2.182c-0.779,0.468-1.818,0.702-2.857,0.702
		l-1.818-0.208c-2.078-0.546-3.377-1.585-4.155-3.17c-4.156-0.504-7.533-0.753-9.611-0.753"/>
</g>
<rect fill="none" stroke="#000000" stroke-width="4" stroke-linecap="round" stroke-linejoin="round" stroke-miterlimit="10" width="153" height="93"/>
<rect x="52.5" y="93.5" stroke="#000000" stroke-linecap="round" stroke-linejoin="round" stroke-miterlimit="10" width="48" height="23"/>
<path stroke="#000000" stroke-linecap="round" stroke-linejoin="round" stroke-miterlimit="10" d="M128.836,121
	c0,4.097-3.688,7.5-8.237,7.5H32.737c-4.549,0-8.237-3.403-8.237-7.5l0,0c0-4.097,3.688-7.5,8.237-7.5h87.862
	C125.148,113.5,128.836,116.903,128.836,121L128.836,121z"/>
<path fill="#6CC0F4" stroke="#000000" stroke-width="2" stroke-linecap="round" stroke-linejoin="round" stroke-miterlimit="10" d="
	M174,155.815c0,5.072-4.112,9.185-9.185,9.185h-0.63c-5.073,0-9.185-4.112-9.185-9.185v-9.631c0-5.072,4.112-9.185,9.185-9.185h0.63
	c5.073,0,9.185,4.112,9.185,9.185V155.815z"/>
<path fill="#BDCCD4" stroke="#000000" stroke-width="2" stroke-linecap="round" stroke-linejoin="round" stroke-miterlimit="10" d="
	M553,128c0,6.627-3.288,12-7.344,12h-97.312c-4.056,0-7.344-5.373-7.344-12v-11c0-6.627,3.288-12,7.344-12h97.312
	c4.056,0,7.344,5.373,7.344,12V128z"/>
<path d="M100.492,63.453c-0.918,2.121-2.004,4.073-3.263,5.867c-1.716,2.447-3.121,4.141-4.204,5.081
	c-1.678,1.543-3.477,2.334-5.402,2.379c-1.382,0-3.05-0.394-4.991-1.191c-1.947-0.794-3.737-1.188-5.373-1.188
	c-1.716,0-3.556,0.394-5.525,1.188c-1.971,0.798-3.56,1.214-4.774,1.255c-1.847,0.079-3.688-0.733-5.525-2.442
	c-1.172-1.022-2.639-2.776-4.396-5.261c-1.885-2.652-3.436-5.729-4.65-9.235c-1.3-3.788-1.952-7.456-1.952-11.007
	c0-4.068,0.879-7.576,2.64-10.516c1.383-2.361,3.224-4.224,5.528-5.591c2.304-1.368,4.793-2.065,7.474-2.109
	c1.467,0,3.39,0.454,5.78,1.346c2.384,0.895,3.915,1.348,4.586,1.348c0.501,0,2.202-0.53,5.083-1.588
	c2.726-0.98,5.026-1.387,6.911-1.227c5.106,0.412,8.943,2.425,11.495,6.052c-4.567,2.768-6.826,6.643-6.782,11.615
	c0.042,3.873,1.447,7.096,4.208,9.655c1.251,1.188,2.649,2.105,4.204,2.757C101.226,61.617,100.87,62.553,100.492,63.453
	L100.492,63.453z M88.779,17.366c0,3.036-1.108,5.87-3.319,8.493c-2.667,3.119-5.894,4.921-9.393,4.637
	c-0.044-0.364-0.07-0.748-0.07-1.15c0-2.914,1.269-6.033,3.521-8.583c1.125-1.291,2.555-2.364,4.29-3.221
	c1.731-0.844,3.369-1.31,4.908-1.39C88.761,16.557,88.779,16.963,88.779,17.366L88.779,17.366z"/>
<g>
	<g>
		
			<line fill="none" stroke="#000000" stroke-width="8" stroke-linecap="round" stroke-miterlimit="10" x1="191" y1="93" x2="381" y2="93"/>
		<g>
			<path d="M429.089,93c-22.719,8.431-50.905,22.812-68.379,38.047L374.473,93L360.71,54.961
				C378.184,70.195,406.37,84.578,429.089,93z"/>
		</g>
	</g>
</g>
<ellipse fill="#FF931E" cx="346.975" cy="92.647" rx="7.025" ry="13.353"/>
<rect x="219" y="79" fill="#FF931E" width="128" height="27"/>
<ellipse fill="#FF931E" cx="219.526" cy="92.647" rx="7.026" ry="13.353"/>
<line fill="none" stroke="#000000" stroke-width="8" stroke-miterlimit="10" x1="207" y1="93" x2="226" y2="93"/>
<g>
	<rect x="269.5" y="84.5" fill="none" width="43.25" height="21.5"/>
	<path d="M270.844,97.185c0.819,0.504,2.016,0.924,3.275,0.924c1.869,0,2.96-0.987,2.96-2.415c0-1.323-0.756-2.079-2.667-2.813
		c-2.31-0.819-3.737-2.016-3.737-4.01c0-2.205,1.827-3.842,4.577-3.842c1.449,0,2.499,0.336,3.128,0.693l-0.504,1.491
		c-0.462-0.252-1.407-0.672-2.688-0.672c-1.932,0-2.667,1.155-2.667,2.121c0,1.323,0.861,1.974,2.813,2.729
		c2.395,0.924,3.611,2.079,3.611,4.157c0,2.184-1.617,4.073-4.955,4.073c-1.365,0-2.855-0.399-3.611-0.903L270.844,97.185z"/>
	<path d="M281.197,97.185c0.818,0.504,2.016,0.924,3.275,0.924c1.868,0,2.959-0.987,2.959-2.415c0-1.323-0.756-2.079-2.666-2.813
		c-2.311-0.819-3.738-2.016-3.738-4.01c0-2.205,1.828-3.842,4.578-3.842c1.449,0,2.498,0.336,3.127,0.693l-0.504,1.491
		c-0.461-0.252-1.406-0.672-2.688-0.672c-1.932,0-2.667,1.155-2.667,2.121c0,1.323,0.86,1.974,2.813,2.729
		c2.394,0.924,3.61,2.079,3.61,4.157c0,2.184-1.616,4.073-4.955,4.073c-1.364,0-2.854-0.399-3.61-0.903L281.197,97.185z"/>
	<path d="M293.628,85.259v5.921h6.845v-5.921h1.848V99.41h-1.848v-6.635h-6.845v6.635h-1.827V85.259H293.628z"/>
</g>
<g>
	<rect x="-0.5" y="174.667" fill="none" width="155.5" height="38"/>
	<path d="M63.189,189.115c-0.672,0.336-2.016,0.672-3.737,0.672c-3.989,0-6.992-2.521-6.992-7.16c0-4.43,3.002-7.433,7.391-7.433
		c1.764,0,2.876,0.378,3.359,0.63l-0.441,1.489c-0.693-0.336-1.68-0.588-2.855-0.588c-3.317,0-5.522,2.121-5.522,5.838
		c0,3.465,1.995,5.689,5.438,5.689c1.113,0,2.247-0.23,2.981-0.588L63.189,189.115z"/>
	<path d="M65.417,174.67h1.848v14.906h-1.848V174.67z"/>
	<path d="M72.43,176.56c0.021,0.631-0.441,1.135-1.176,1.135c-0.651,0-1.113-0.504-1.113-1.135c0-0.65,0.483-1.154,1.155-1.154
		C71.989,175.403,72.43,175.908,72.43,176.56z M70.373,189.576v-10.162h1.848v10.162H70.373z"/>
	<path d="M76.315,184.832c0.042,2.498,1.638,3.526,3.485,3.526c1.323,0,2.121-0.23,2.813-0.524l0.315,1.322
		c-0.651,0.295-1.764,0.631-3.38,0.631c-3.128,0-4.997-2.06-4.997-5.123c0-3.065,1.806-5.479,4.766-5.479
		c3.317,0,4.199,2.918,4.199,4.787c0,0.377-0.042,0.672-0.063,0.86H76.315z M81.732,183.509c0.021-1.176-0.483-3.003-2.562-3.003
		c-1.869,0-2.688,1.724-2.834,3.003H81.732z"/>
	<path d="M85.808,182.165c0-1.05-0.021-1.911-0.084-2.751h1.638l0.105,1.68h0.042c0.504-0.965,1.68-1.909,3.359-1.909
		c1.407,0,3.59,0.84,3.59,4.324v6.067H92.61v-5.857c0-1.638-0.609-3.002-2.352-3.002c-1.218,0-2.163,0.86-2.478,1.89
		c-0.084,0.23-0.126,0.547-0.126,0.86v6.109h-1.848v-7.411H85.808z"/>
	<path d="M99.604,176.496v2.918h2.646v1.407h-2.646v5.479c0,1.26,0.357,1.975,1.386,1.975c0.483,0,0.84-0.062,1.071-0.127
		l0.084,1.388c-0.357,0.146-0.924,0.252-1.638,0.252c-0.861,0-1.554-0.272-1.995-0.777c-0.525-0.546-0.714-1.448-0.714-2.646v-5.543
		h-1.575v-1.407h1.575v-2.437L99.604,176.496z"/>
</g>
<g>
	<rect x="424" y="171.877" fill="none" width="137" height="38"/>
	<path d="M437.48,172.824c0.924-0.189,2.245-0.294,3.506-0.294c1.953,0,3.213,0.355,4.095,1.154
		c0.714,0.629,1.112,1.597,1.112,2.688c0,1.868-1.177,3.106-2.666,3.61v0.062c1.092,0.378,1.742,1.387,2.078,2.855
		c0.463,1.974,0.799,3.338,1.092,3.885h-1.89c-0.23-0.398-0.547-1.617-0.944-3.381c-0.42-1.953-1.176-2.688-2.834-2.75h-1.724v6.131
		h-1.825V172.824L437.48,172.824z M439.307,179.271h1.869c1.953,0,3.191-1.07,3.191-2.688c0-1.826-1.322-2.624-3.254-2.646
		c-0.883,0-1.513,0.084-1.808,0.168L439.307,179.271L439.307,179.271z"/>
	<path d="M449.828,182.041c0.042,2.499,1.638,3.526,3.484,3.526c1.323,0,2.12-0.229,2.813-0.523l0.313,1.323
		c-0.649,0.293-1.764,0.629-3.38,0.629c-3.128,0-4.997-2.058-4.997-5.123c0-3.063,1.807-5.479,4.767-5.479
		c3.317,0,4.199,2.92,4.199,4.787c0,0.379-0.041,0.672-0.062,0.86H449.828L449.828,182.041z M455.245,180.719
		c0.021-1.176-0.483-3.002-2.562-3.002c-1.868,0-2.688,1.722-2.834,3.002H455.245z"/>
	<path d="M459.32,179.375c0-1.05-0.021-1.91-0.084-2.75h1.617l0.084,1.638H461c0.566-0.966,1.512-1.869,3.191-1.869
		c1.386,0,2.436,0.84,2.877,2.037h0.041c0.314-0.566,0.715-1.009,1.135-1.322c0.607-0.463,1.28-0.715,2.246-0.715
		c1.344,0,3.338,0.883,3.338,4.409v5.984h-1.805v-5.754c0-1.952-0.716-3.128-2.205-3.128c-1.051,0-1.869,0.775-2.185,1.68
		c-0.084,0.252-0.146,0.588-0.146,0.924v6.278h-1.808v-6.091c0-1.615-0.713-2.791-2.12-2.791c-1.154,0-1.994,0.924-2.287,1.848
		c-0.105,0.271-0.147,0.588-0.147,0.902v6.132h-1.806V179.375L459.32,179.375z"/>
	<path d="M486.031,181.621c0,3.759-2.604,5.396-5.062,5.396c-2.75,0-4.871-2.016-4.871-5.229c0-3.4,2.227-5.396,5.039-5.396
		C484.057,176.394,486.031,178.515,486.031,181.621z M477.969,181.728c0,2.226,1.28,3.904,3.086,3.904
		c1.765,0,3.086-1.658,3.086-3.947c0-1.722-0.859-3.904-3.044-3.904C478.913,177.78,477.969,179.795,477.969,181.728z"/>
	<path d="M490.589,173.706v2.919h2.646v1.406h-2.646v5.479c0,1.26,0.356,1.973,1.386,1.973c0.482,0,0.84-0.062,1.07-0.125
		l0.084,1.386c-0.355,0.147-0.924,0.252-1.637,0.252c-0.861,0-1.555-0.272-1.995-0.776c-0.524-0.546-0.714-1.447-0.714-2.646v-5.543
		h-1.574v-1.406h1.574v-2.437L490.589,173.706z"/>
	<path d="M496.217,182.041c0.042,2.499,1.639,3.526,3.485,3.526c1.323,0,2.12-0.229,2.812-0.523l0.314,1.323
		c-0.65,0.293-1.765,0.629-3.38,0.629c-3.128,0-4.997-2.058-4.997-5.123c0-3.063,1.806-5.479,4.766-5.479
		c3.318,0,4.199,2.92,4.199,4.787c0,0.379-0.041,0.672-0.062,0.86H496.217L496.217,182.041z M501.634,180.719
		c0.021-1.176-0.482-3.002-2.562-3.002c-1.869,0-2.688,1.722-2.834,3.002H501.634z"/>
	<path d="M512.051,172.635v5.923h6.844v-5.923h1.849v14.152h-1.849v-6.636h-6.844v6.636h-1.827v-14.152H512.051L512.051,172.635z"/>
	<path d="M533.049,181.621c0,3.759-2.604,5.396-5.061,5.396c-2.75,0-4.871-2.016-4.871-5.229c0-3.4,2.227-5.396,5.039-5.396
		C531.075,176.394,533.049,178.515,533.049,181.621z M524.986,181.728c0,2.226,1.28,3.904,3.086,3.904
		c1.764,0,3.087-1.658,3.087-3.947c0-1.722-0.86-3.904-3.044-3.904C525.931,177.78,524.986,179.795,524.986,181.728z"/>
	<path d="M535.129,184.896c0.547,0.357,1.512,0.735,2.437,0.735c1.344,0,1.975-0.672,1.975-1.512c0-0.882-0.525-1.364-1.891-1.868
		c-1.826-0.65-2.688-1.659-2.688-2.877c0-1.639,1.323-2.98,3.507-2.98c1.028,0,1.933,0.293,2.499,0.629l-0.463,1.345
		c-0.397-0.252-1.133-0.589-2.078-0.589c-1.092,0-1.701,0.631-1.701,1.387c0,0.84,0.609,1.218,1.933,1.723
		c1.764,0.672,2.667,1.553,2.667,3.064c0,1.783-1.386,3.044-3.8,3.044c-1.113,0-2.144-0.272-2.855-0.692L535.129,184.896z"/>
	<path d="M545.923,173.706v2.919h2.646v1.406h-2.646v5.479c0,1.26,0.356,1.973,1.386,1.973c0.482,0,0.841-0.062,1.07-0.125
		l0.084,1.386c-0.355,0.147-0.924,0.252-1.637,0.252c-0.861,0-1.556-0.272-1.995-0.776c-0.524-0.546-0.714-1.447-0.714-2.646v-5.543
		h-1.574v-1.406h1.574v-2.437L545.923,173.706z"/>
</g>
<rect x="459.5" y="110.5" fill="#FF1D25" stroke="#000000" stroke-miterlimit="10" width="5" height="6"/>
<rect x="449.5" y="110.5" fill="#7AC943" stroke="#000000" stroke-miterlimit="10" width="5" height="6"/>
<line fill="none" stroke="#000000" stroke-miterlimit="10" x1="449" y1="122.5" x2="465" y2="122.5"/>
<line fill="none" stroke="#000000" stroke-miterlimit="10" x1="449" y1="127.5" x2="465" y2="127.5"/>
<line fill="none" stroke="#000000" stroke-miterlimit="10" x1="449" y1="132.5" x2="465" y2="132.5"/>
<g transform="translate(0.000000,300.000000) scale(0.100000,-0.100000)">
	<path id="node1" fill="#2A2A2A" d="M3196.699,1700.556c-79.316-32.744-128.281-103.008-134.941-193.76
		c-2.656-40.186,10.918-93.154,36.738-142.91l14.365-27.686l-7.451-6.387c-3.984-3.457-14.102-8.262-22.617-10.381
		c-8.252-2.402-19.707-5.322-25.293-6.914c-14.365-4.004-31.66-20.771-39.922-39.131c-3.984-9.053-7.979-24.756-9.844-38.584
		c-1.602-13.057-7.451-41.787-13.301-63.877c-19.17-75.049-23.691-108.584-15.977-120.83c11.445-18.096,48.965-24.219,71.064-11.709
		c6.123,3.467,14.102,10.635,17.832,15.967l6.924,9.316l-9.053,7.451c-17.041,13.838-17.568,17.559-17.568,98.203
		c0,68.125,0.273,73.193,5.586,84.102c3.73,7.725,9.316,13.838,16.768,18.105l11.455,6.65h137.324
		c90.752,0,139.727-1.074,144.785-2.93c10.645-3.994,19.414-12.773,25.01-25.02c4.521-9.58,5.059-18.105,5.059-78.506
		c0-39.658-1.064-72.119-2.92-77.988c-1.602-5.85-7.461-14.639-13.32-20.488l-10.908-10.391l7.188-9.307
		c3.721-5.068,9.854-10.908,13.311-13.311c26.611-17.559,72.656-6.133,77.441,18.906c2.402,13.301-2.656,44.16-16.23,99.258
		c-6.387,25.547-13.574,59.082-15.703,74.268c-4.785,31.123-12.51,50.83-25.293,63.604c-11.436,11.445-19.688,15.43-42.041,20.488
		c-22.09,5.068-35.4,12.52-35.4,19.961c0,2.93,7.188,19.434,15.977,36.465c24.219,47.637,36.455,101.66,31.66,140
		c-9.316,77.705-40.449,131.201-97.402,167.656c-21.025,13.574-50.293,25.82-61.211,25.82
		C3214.795,1706.67,3204.687,1703.74,3196.699,1700.556z M3243.808,1604.209c22.354-6.66,37.793-17.041,66.797-45.244l27.412-26.621
		l0.264-23.955c0.537-46.309-15.166-80.371-58.555-127.207c-28.477-30.879-31.66-32.471-59.082-32.471
		c-14.902,0.264-25.01,1.592-29.805,3.994c-11.172,6.113-55.352,55.879-66.797,74.785c-14.102,23.945-20.762,47.1-22.363,77.168
		l-1.592,25.557l27.676,27.676C3172.207,1602.344,3205.215,1615.644,3243.808,1604.209z"/>
	<path id="node2" fill="#2A2A2A" d="M3204.687,1597.011c-19.961-3.447-39.121-14.902-60.957-36.191
		c-20.488-20.225-20.762-20.752-19.16-31.133l1.865-10.645l8.252,18.096c4.785,9.854,9.58,17.822,11.172,17.822
		c2.402,0,4.258-6.65,6.387-23.945c0.547-5.332,3.203-1.602,11.982,17.031c6.123,13.047,11.973,22.9,12.773,22.09
		c1.064-0.801,2.393-8.516,3.467-17.031l1.592-15.439l8.779,13.311c12.51,19.16,21.289,29.277,23.418,27.139
		c1.328-1.055,0.801-7.979-0.527-15.166c-1.602-7.451-2.129-13.311-1.064-13.311c0.801,0,5.85,5.859,11.445,13.311
		c10.908,14.375,21.289,22.627,25.811,19.961c1.328-0.801,2.666-6.924,2.666-13.574c0-6.387,0.537-11.709,1.338-11.709
		c0.791,0,7.715,3.193,15.43,6.924l13.574,7.188l-9.053,7.451C3256.582,1593.564,3227.304,1601.279,3204.687,1597.011z"/>
	<path id="node3" fill="#2A2A2A" d="M3291.709,1556.562c0.801-4.248,2.666-6.123,5.059-5.049c4.521,1.592,4.795,3.984,0.537,8.252
		C3292.246,1564.814,3290.381,1563.486,3291.709,1556.562z"/>
	<path id="node4" fill="#2A2A2A" d="M3150.117,1522.5c-4.258-1.602-10.107-4.531-12.5-6.66c-3.457-3.184-6.387-3.457-12.246-1.328
		c-15.43,5.322-19.434-8.516-4.258-15.176c5.322-2.119,9.043-6.377,10.645-11.699c3.73-12.51,14.375-18.633,34.336-19.961
		c25.273-1.602,35.664,1.064,45.781,11.973l9.043,9.316l5.586-7.188c7.988-10.107,20.498-14.639,39.922-14.639
		c22.617,0.273,37.793,6.924,42.314,19.424c2.139,6.133,6.123,10.654,12.246,13.574c15.166,7.197,8.525,18.906-7.451,13.057
		c-6.123-2.402-8.252-2.139-11.973,2.119c-13.848,15.176-60.41,13.047-74.258-3.457l-6.66-7.988l-7.441,7.988
		C3201.22,1524.629,3170.615,1529.687,3150.117,1522.5z M3192.441,1504.404c8.242-2.93,9.316-11.982,1.855-15.967
		c-2.93-1.338-11.973-2.666-20.215-2.666c-8.262,0-17.305,1.328-20.234,2.666c-6.914,3.73-6.387,13.037,1.064,15.967
		C3162.89,1507.588,3184.189,1507.588,3192.441,1504.404z M3285.586,1504.404c8.252-2.93,9.316-11.982,1.865-15.967
		c-7.451-3.994-38.33-3.467-43.916,0.801c-5.85,4.248-3.721,14.102,3.203,15.957
		C3255.254,1507.588,3278.935,1507.06,3285.586,1504.404z"/>
	<path id="node5" fill="#2A2A2A" d="M3081.719,1255.293c-14.365-7.715-15.43-13.301-15.43-86.758
		c0-59.355,0.527-68.408,4.531-73.994c9.307-13.564,4.248-13.037,149.297-13.311h136.797l7.715,7.725l7.725,7.725v72.119v72.119
		l-7.725,8.516l-7.715,8.789l-134.141,0.537C3108.066,1259.287,3087.851,1258.76,3081.719,1255.293z"/>
</g>
<g transform="translate(0.000000,300.000000) scale(0.100000,-0.100000)">
	<path id="node7" fill="#FFFFFF" d="M3198.301,1605.273c-21.562-5.059-42.324-19.16-70.537-47.383l-27.676-27.676l1.592-25.557
		c1.602-30.068,8.262-53.223,22.363-77.168c11.445-18.906,55.625-68.672,66.797-74.785c4.795-2.402,14.902-3.73,29.805-3.994
		c27.422,0,30.605,1.592,59.082,32.471c43.389,46.836,59.092,80.898,58.555,127.207l-0.264,23.955l-27.412,26.621
		C3266.426,1602.07,3236.621,1614.316,3198.301,1605.273z M3251.25,1591.972c7.461-2.676,17.578-8.535,22.627-12.783l9.053-7.451
		l-13.574-7.188c-7.715-3.73-14.639-6.924-15.43-6.924c-0.801,0-1.338,5.322-1.338,11.709c0,6.65-1.338,12.773-2.666,13.574
		c-4.521,2.666-14.902-5.586-25.811-19.961c-5.596-7.451-10.645-13.311-11.445-13.311c-1.064,0-0.537,5.859,1.064,13.311
		c1.328,7.188,1.855,14.111,0.527,15.166c-2.129,2.139-10.908-7.979-23.418-27.139l-8.779-13.311l-1.592,15.439
		c-1.074,8.516-2.402,16.221-3.467,17.021c-0.801,0.82-6.65-9.043-12.773-22.09c-8.779-18.633-11.436-22.354-11.982-17.021
		c-2.129,17.295-3.984,23.936-6.387,23.936c-1.592,0-6.387-7.969-11.172-17.812l-8.252-18.105l-1.865,10.654
		c-1.602,10.381-1.328,10.908,19.16,31.133C3180.996,1597.011,3212.402,1606.338,3251.25,1591.972z M3297.305,1559.765
		c4.258-4.268,3.984-6.66-0.537-8.252c-2.393-1.074-4.258,0.801-5.059,5.049C3290.381,1563.486,3292.246,1564.814,3297.305,1559.765
		z M3195.098,1522.763c5.859-1.602,13.848-6.387,18.105-10.908l7.441-7.988l6.66,7.988c13.848,16.504,60.41,18.633,74.258,3.457
		c3.721-4.258,5.85-4.521,11.973-2.119c15.977,5.85,22.617-5.859,7.451-13.057c-6.123-2.92-10.107-7.441-12.246-13.574
		c-4.521-12.5-19.697-19.15-42.314-19.424c-19.424,0-31.934,4.531-39.922,14.639l-5.586,7.188l-9.043-9.316
		c-10.117-10.908-20.508-13.574-45.781-11.973c-19.961,1.328-30.605,7.451-34.336,19.961c-1.602,5.322-5.322,9.58-10.645,11.699
		c-15.176,6.66-11.172,20.498,4.258,15.176c5.859-2.129,8.789-1.855,12.246,1.328
		C3148.525,1525.156,3174.873,1528.359,3195.098,1522.763z"/>
	<path id="node8" fill="#FFFFFF" d="M3154.912,1504.404c-7.451-2.93-7.979-12.236-1.064-15.967
		c2.93-1.338,11.973-2.666,20.234-2.666c8.242,0,17.285,1.328,20.215,2.666c7.461,3.984,6.387,13.037-1.855,15.967
		C3184.189,1507.588,3162.891,1507.588,3154.912,1504.404z"/>
	<path id="node9" fill="#FFFFFF" d="M3246.738,1505.195c-6.924-1.855-9.053-11.709-3.203-15.957
		c5.586-4.268,36.465-4.795,43.916-0.801c7.451,3.984,6.387,13.037-1.865,15.967
		C3278.936,1507.06,3255.254,1507.588,3246.738,1505.195z"/>
</g>
<g>
	<g>
		<line fill="none" stroke="#000000" stroke-width="3" stroke-miterlimit="10" x1="242.5" y1="172" x2="242.5" y2="134"/>
		<g>
			<path d="M242.5,116c3.161,8.521,8.555,19.09,14.268,25.642l-14.268-5.16l-14.265,5.16C233.948,135.09,239.342,124.521,242.5,116z
				"/>
		</g>
	</g>
</g>
<line fill="none" stroke="#000000" stroke-width="3" stroke-miterlimit="10" x1="242" y1="172.5" x2="293" y2="172.5"/>
<line fill="none" stroke="#FF1D25" stroke-width="3" stroke-linecap="round" stroke-linejoin="round" stroke-miterlimit="10" x1="229.334" y1="159.666" x2="255" y2="185.333"/>
<line fill="none" stroke="#FF1D25" stroke-width="3" stroke-linecap="round" stroke-linejoin="round" stroke-miterlimit="10" x1="229.333" y1="185.333" x2="255" y2="159.667"/>
</svg>
