<?xml version="1.0" encoding="utf-8"?>
<!-- Generator: Adobe Illustrator 16.0.0, SVG Export Plug-In . SVG Version: 6.00 Build 0)  -->
<!DOCTYPE svg PUBLIC "-//W3C//DTD SVG 1.1//EN" "http://www.w3.org/Graphics/SVG/1.1/DTD/svg11.dtd">
<svg version="1.1" id="Layer_1" xmlns="http://www.w3.org/2000/svg" xmlns:xlink="http://www.w3.org/1999/xlink" x="0px" y="0px"
	 width="298px" height="213px" viewBox="0 0 298 213" enable-background="new 0 0 298 213" xml:space="preserve">
<path fill="#888888" d="M174.2,62.384v41.266h75.653V62.384c0-13.755,0-13.755-27.51-13.755h-20.633
	C174.201,48.629,174.201,48.629,174.2,62.384L174.2,62.384z"/>
<g>
	<path fill="#888888" d="M212.029,0.485c-47.479,0-85.969,38.49-85.969,85.97c0,47.48,38.49,85.97,85.969,85.97
		s85.97-38.488,85.971-85.967C297.999,38.979,259.509,0.485,212.029,0.485z M167.329,62.384c0-20.633,3.438-20.633,34.388-20.633
		h20.631h0.002c30.949,0,34.389,0,34.389,20.633v48.143h-89.409V62.384z M249.861,124.286h-75.654c-12.609,0-13.755,0-13.755-8.597
		c0-0.646,0.019-1.168,0.036-1.719h103.08h0.012c0.018,0.557,0.036,1.065,0.036,1.719
		C263.616,124.286,262.471,124.286,249.861,124.286z"/>
	<polygon fill="#888888" points="298,86.455 298,86.458 298,86.46 	"/>
</g>
<path fill="#888888" d="M203.65,117.4c-0.95,0.099-1.639,0.949-1.541,1.898c0.1,0.95,0.949,1.639,1.9,1.54h16.047h0.049
	c0.951-0.013,1.709-0.794,1.695-1.743c-0.013-0.951-0.794-1.709-1.744-1.695H204.01C203.891,117.389,203.77,117.389,203.65,117.4
	L203.65,117.4z"/>
<path fill="#5E2750" d="M107.46,54.217c0,29.675-24.056,53.732-53.732,53.732S0,83.891,0,54.216C0,24.541,24.056,0.484,53.732,0.484
	C83.408,0.484,107.46,24.54,107.46,54.217L107.46,54.217z M76.418,33.799v40.836c0,13.612-2.269,13.612-22.687,13.612
	s-22.687,0-22.687-13.612V33.799c0-13.612,2.269-13.612,22.687-13.612S76.418,20.187,76.418,33.799z M48.201,22.455
	c-0.626,0.065-1.081,0.626-1.016,1.253c0.065,0.626,0.626,1.081,1.253,1.016h10.587h0.032c0.626-0.009,1.127-0.524,1.118-1.15
	c-0.009-0.626-0.524-1.127-1.15-1.118H48.438C48.359,22.447,48.28,22.447,48.201,22.455z M35.582,36.067v34.03
	c0,9.075,0,9.075,18.149,9.075s18.149,0,18.149-9.075v-34.03c0-9.075,0-9.075-18.149-9.075S35.582,26.993,35.582,36.067z"/>
<path fill="#DD4814" d="M124.66,169.529c0,23.74-19.245,42.986-42.985,42.986c-23.74,0-42.988-19.25-42.988-42.99
	s19.245-42.985,42.985-42.985C105.412,126.54,124.66,145.79,124.66,169.529z M98.006,190.54H65.337
	c-10.89,0-10.89-4.681-10.89-21.015s0-21.016,10.89-21.016h32.669c10.89,0,10.89,4.682,10.89,21.016s0,21.02-10.894,21.02
	L98.006,190.54z M107.08,165.109c-0.052-0.5-0.501-0.864-1.002-0.812c-0.501,0.053-0.865,0.501-0.813,1.002v8.471v0.025
	c0.007,0.501,0.419,0.902,0.92,0.895c0.501-0.006,0.902-0.418,0.895-0.92v-8.47c0.01-0.079,0.01-0.14,0-0.2V165.109z
	 M96.191,152.141H67.534c-7.26,0-7.26,2.865-7.26,17.385c0,14.519,0,17.385,7.26,17.385h28.657c7.26,0,7.26-2.866,7.26-17.385
	c0-14.52,0-17.381-7.259-17.381L96.191,152.141z"/>
<g id="Grid" display="none">
</g>
</svg>
