<?xml version="1.0" encoding="utf-8"?>
<!-- Generator: Adobe Illustrator 16.0.0, SVG Export Plug-In . SVG Version: 6.00 Build 0)  -->
<!DOCTYPE svg PUBLIC "-//W3C//DTD SVG 1.1//EN" "http://www.w3.org/Graphics/SVG/1.1/DTD/svg11.dtd">
<svg version="1.1"
	 id="svg1306" sodipodi:version="0.32" inkscape:version="0.47+devel r9232" sodipodi:docname="Weather-overcast.svg" xmlns:cc="http://creativecommons.org/ns#" xmlns:inkscape="http://www.inkscape.org/namespaces/inkscape" xmlns:dc="http://purl.org/dc/elements/1.1/" xmlns:svg="http://www.w3.org/2000/svg" xmlns:sodipodi="http://sodipodi.sourceforge.net/DTD/sodipodi-0.dtd" xmlns:rdf="http://www.w3.org/1999/02/22-rdf-syntax-ns#"
	 xmlns="http://www.w3.org/2000/svg" xmlns:xlink="http://www.w3.org/1999/xlink" x="0px" y="0px" width="256px" height="178.916px"
	 viewBox="0 0 256 178.916" enable-background="new 0 0 256 178.916" xml:space="preserve">
<sodipodi:namedview  id="base" inkscape:window-maximized="0" inkscape:guide-bbox="true" inkscape:current-layer="layer1" inkscape:window-width="1024" inkscape:pageopacity="0.0" inkscape:window-height="578" inkscape:pageshadow="2" inkscape:window-x="0" inkscape:window-y="0" inkscape:grid-bbox="true" inkscape:document-units="px" inkscape:showpageshadow="false" inkscape:cx="128" inkscape:zoom="2.241277" showgrid="true" inkscape:cy="89.457932" showguides="true" pagecolor="#ffffff" borderopacity="1.0" bordercolor="#666666">
	</sodipodi:namedview>
<path id="path8267" inkscape:connector-curvature="0" fill="#888A85" d="M133.514,29.664c-13.929,0-25.664,7.906-32.185,19.154
	c-4.744-2.387-9.873-4.082-15.542-4.082c-19.412,0-35.167,15.755-35.167,35.167c0,19.413,15.755,35.167,35.167,35.167
	c12.156,0,22.256-6.627,28.573-16.014c5.698,3.465,12.002,5.967,19.154,5.967c4.587,0,8.807-1.166,12.873-2.67
	c2.562,4.359,5.924,7.938,10.048,10.834c-0.035,0.654-0.313,1.219-0.313,1.883c0,19.412,15.754,35.168,35.166,35.168
	s35.168-15.756,35.168-35.168c0-11.904-6.326-21.895-15.387-28.259c0.035-0.655,0.314-1.22,0.314-1.884
	c0-19.412-15.755-35.167-35.167-35.167c-3.128,0-5.903,1.116-8.792,1.884C161.423,38.789,148.628,29.664,133.514,29.664
	L133.514,29.664z"/>
<g id="g7794" transform="matrix(5.8178394,0,0,5.8178394,-1441.5013,2509.7038)">
	
		<path id="path7796" sodipodi:nodetypes="ccsscsssscsscc" inkscape:connector-curvature="0" fill="#C4C5C2" stroke="#888A85" stroke-miterlimit="2" d="
		M279.254-416.603c-1.961,0-3.549,1.339-4.075,3.13c-0.599-0.314-1.247-0.54-1.97-0.54c-2.383,0-4.318,1.934-4.318,4.318
		c0,0.5,0.14,0.956,0.297,1.403c-1.186,0.666-2.024,1.89-2.024,3.346c0,2.145,1.741,3.886,3.886,3.886c0.153,0,16.254,0,16.407,0
		c2.145,0,3.886-1.741,3.886-3.886c0-1.456-0.838-2.681-2.024-3.346c0.157-0.447,0.297-0.903,0.297-1.403
		c0-2.383-1.934-4.318-4.318-4.318c-0.723,0-1.371,0.226-1.97,0.54C282.803-415.264,281.215-416.603,279.254-416.603z"/>
	
		<linearGradient id="path7798_1_" gradientUnits="userSpaceOnUse" x1="253.1819" y1="-296.5532" x2="267.1888" y2="-305.6351" gradientTransform="matrix(5.0239 0 0 -5.0239 -1001.1486 -1902.1962)">
		<stop  offset="0" style="stop-color:#FFFFFF"/>
		<stop  offset="1" style="stop-color:#FFFFFF;stop-opacity:0"/>
	</linearGradient>
	<path id="path7798" sodipodi:nodetypes="ccsscsssscsscc" inkscape:connector-curvature="0" fill="url(#path7798_1_)" d="
		M279.254-416.171c-1.891,0-3.215,1.153-3.796,3.319c-0.577-0.297-1.336-0.72-2.033-0.72c-2.346,0-4.106,1.674-4.106,3.925
		c0,0.472,0.231,1.151,0.382,1.573c-1.144,0.628-2.104,1.633-2.104,2.912c0,2.026,1.335,3.67,3.747,3.67c0.148,0,15.674,0,15.821,0
		c2.393,0,3.747-1.644,3.747-3.67c0-1.375-0.96-2.303-2.104-2.931c0.151-0.422,0.401-1.082,0.401-1.554
		c0-2.251-1.827-3.944-4.125-3.944c-0.697,0-1.418,0.423-1.995,0.72C282.528-414.963,281.145-416.171,279.254-416.171z"/>
</g>
<g id="g2299" transform="matrix(2.7462204,0,0,2.7462204,-216.97639,-154.76087)" inkscape:label="Shadow">
</g>
<g id="g2301" transform="matrix(2.7462204,0,0,2.7462204,-216.97639,-113.38623)" inkscape:label="Shadow">
</g>
<g id="g2303" transform="matrix(2.7462204,0,0,2.7462204,-216.97639,-113.38623)" inkscape:label="Lavoro">
</g>
<g id="layer3" transform="matrix(2.7462204,0,0,2.7462204,63.138098,-190.95847)" inkscape:label="tastiera">
	<g id="g3270" transform="translate(-54,0.18088)" inkscape:label="Shadow">
	</g>
	<g id="g2611" transform="translate(-54,15.24691)" inkscape:label="Shadow">
	</g>
	<g id="g2613" transform="translate(-54,15.24691)" inkscape:label="Lavoro">
	</g>
</g>
<g id="layer2" transform="matrix(2.7462204,0,0,2.7462204,63.138098,-190.95847)" inkscape:label="tasti">
</g>
<g id="g4518" transform="matrix(0.935028,0,0,0.935028,159.828,110.3838)">
	
		<path id="path4520" sodipodi:cy="-96.9375" sodipodi:type="arc" sodipodi:cx="-155.0625" sodipodi:rx="3.125" sodipodi:ry="3.125" fill="#C4C5C2" d="
		M-92.56,3.392c0,15.067-12.214,27.28-27.281,27.28c-15.067,0-27.282-12.213-27.282-27.28c0-15.068,12.215-27.282,27.282-27.282
		C-104.774-23.89-92.56-11.676-92.56,3.392z"/>
	
		<linearGradient id="path4522_1_" gradientUnits="userSpaceOnUse" x1="-616.9296" y1="374.0632" x2="-613.7372" y2="370.0735" gradientTransform="matrix(8.1629 0 0 -8.1629 4896.9307 3032.1453)">
		<stop  offset="0" style="stop-color:#FFFFFF"/>
		<stop  offset="1" style="stop-color:#FFFFFF;stop-opacity:0"/>
	</linearGradient>
	
		<path id="path4522" sodipodi:cy="-96.9375" sodipodi:type="arc" sodipodi:cx="-155.0625" sodipodi:rx="3.125" sodipodi:ry="3.125" fill="url(#path4522_1_)" d="
		M-92.245,3.078c0,15.068-12.215,27.281-27.282,27.281c-15.067,0-27.281-12.213-27.281-27.281c0-15.068,12.214-27.282,27.281-27.282
		C-104.46-24.204-92.245-11.99-92.245,3.078z"/>
</g>
<path id="path7854" sodipodi:nodetypes="ccsscsssscsscc" inkscape:connector-curvature="0" fill="#C4C5C2" stroke="#888A85" stroke-miterlimit="2" d="
	M72.846,73.865c-11.409,0-20.648,7.788-23.707,18.21c-3.483-1.827-7.257-3.139-11.46-3.139c-13.866,0-25.12,11.253-25.12,25.12
	c0,2.908,0.816,5.564,1.727,8.164c-6.9,3.871-11.774,10.996-11.774,19.467c0,12.479,10.128,22.607,22.607,22.607
	c0.89,0,94.563,0,95.453,0c12.48,0,22.607-10.128,22.607-22.607c0-8.471-4.874-15.596-11.773-19.467
	c0.91-2.6,1.727-5.256,1.727-8.164c0-13.866-11.254-25.12-25.12-25.12c-4.204,0-7.978,1.312-11.461,3.139
	C93.494,81.653,84.255,73.865,72.846,73.865z"/>
<linearGradient id="path7856_1_" gradientUnits="userSpaceOnUse" x1="31.4709" y1="784.405" x2="45.4778" y2="775.3231" gradientTransform="matrix(5.0239 0 0 -5.0239 -134.4259 4039.3376)">
	<stop  offset="0" style="stop-color:#FFFFFF"/>
	<stop  offset="1" style="stop-color:#FFFFFF;stop-opacity:0"/>
</linearGradient>
<path id="path7856" sodipodi:nodetypes="ccsscsssscsscc" inkscape:connector-curvature="0" fill="url(#path7856_1_)" d="
	M72.846,76.376c-11.001,0-18.707,6.711-22.083,19.31c-3.358-1.727-7.774-4.188-11.828-4.188c-13.647,0-23.889,9.74-23.889,22.836
	c0,2.748,1.342,6.699,2.22,9.154c-6.654,3.656-12.242,9.497-12.242,16.943c0,11.785,7.768,21.352,21.8,21.352
	c0.858,0,91.187,0,92.045,0c13.92,0,21.799-9.566,21.799-21.352c0-8-5.588-13.398-12.242-17.055
	c0.878-2.455,2.332-6.296,2.332-9.043c0-13.096-10.63-22.947-24-22.947c-4.054,0-8.248,2.461-11.606,4.188
	C91.891,83.409,83.847,76.376,72.846,76.376z"/>
</svg>
